<svg id="Layer_1" enable-background="new 0 0 511.88 511.88" height="512" viewBox="0 0 511.88 511.88" width="512" xmlns="http://www.w3.org/2000/svg"><g><g><path d="m186.583 0h221.118c9.689 0 17.544 7.855 17.544 17.544v394.653c0 9.689-7.855 17.544-17.544 17.544h-303.522c-9.689 0-17.544-7.855-17.544-17.544v-316.225c0-4.45 1.824-8.705 5.046-11.774l83.688-79.712c3.023-2.88 7.039-4.486 11.214-4.486z" fill="#fff1f3"/><g fill="#e2ebf0"><path d="m162.535 89.004c9.689 0 17.544-7.854 17.544-17.544v-70.085c-1.723.753-3.324 1.791-4.71 3.111l-83.688 79.712c-1.457 1.387-2.61 3.025-3.455 4.806z"/><path d="m407.701 0h-151.761v429.74h151.761c9.689 0 17.544-7.855 17.544-17.544v-394.652c0-9.69-7.855-17.544-17.544-17.544z"/></g></g><path d="m333.579 396.709h-30.382c-3.028 0-5.483-2.455-5.483-5.483v-141.802c0-3.028-2.455-5.483-5.483-5.483h-72.592c-3.028 0-5.483 2.455-5.483 5.483v143.107c0 3.028-2.455 5.483-5.483 5.483h-32.371c-4.535 0-7.11 5.192-4.364 8.802l79.637 102.9c2.196 2.888 6.541 2.885 8.733-.006l77.641-104.205c2.737-3.611.162-8.796-4.37-8.796z" fill="#a6d1ff"/><path d="m333.579 396.709h-30.382c-3.028 0-5.483-2.455-5.483-5.483v-141.802c0-3.028-2.455-5.483-5.483-5.483h-36.29v267.939c1.635-.001 3.27-.724 4.367-2.17l77.641-104.205c2.737-3.611.162-8.796-4.37-8.796z" fill="#57a9ff"/></g></svg>